<?xml version="1.0" encoding="utf-8"?>
<!-- Generator: Adobe Illustrator 15.0.0, SVG Export Plug-In . SVG Version: 6.00 Build 0)  -->
<!DOCTYPE svg PUBLIC "-//W3C//DTD SVG 1.1//EN" "http://www.w3.org/Graphics/SVG/1.1/DTD/svg11.dtd">
<svg version="1.1" id="Layer_2" xmlns="http://www.w3.org/2000/svg" xmlns:xlink="http://www.w3.org/1999/xlink" x="0px" y="0px"
	 width="751.596px" height="179.215px" viewBox="0 331.134 751.596 179.215" enable-background="new 0 331.134 751.596 179.215"
	 xml:space="preserve">
<title>logo</title>
<g display="none">
	<path display="inline" fill="#BDFFFF" d="M143.765,391.857c-0.54-0.919-1.099-1.866-1.7-2.813
		c-22.323-34.654-53.511-61.13-69.327-57.593c-5.635,1.801-10.491,5.461-13.776,10.38c9.862,0.659,19.263,4.422,26.855,10.75
		c6.144,3.297,11.801,7.43,16.811,12.279c7.459,5.981,32.244,34.271,45.982,67.963c5.28,13.582,6.79,24.596,3.939,29.029
		l-0.095,0.143c-3.083,4.791-15.229,8.049-31.515,8.314c-1.363,5.326-3.267,10.5-5.683,15.438
		c25.979,0.947,47.431-3.641,53.482-13.221C177.202,459.603,165.591,423.998,143.765,391.857z"/>
	<path display="inline" fill="#BDFFFF" d="M162.83,426.521c-1.292-3.047-2.712-6.137-4.263-9.272
		c-2.263,7.227-4.912,14.329-7.937,21.272c3.575,10.891,4.343,19.529,1.895,23.322l-0.095,0.143
		c-0.676,0.969-1.537,1.795-2.533,2.43C156.03,461.199,167.745,455.507,162.83,426.521z"/>
	<path display="inline" fill="#BDFFFF" d="M145.64,373.133l0.119,0.132c3.93,4.39,3.745,17.811-0.626,34.569
		c-16.849,44.594-25.495,49.827-44.986,69.243c-13.293,10.717-25.27,16.275-30.819,14.457l-0.189-0.066
		c-3.722-1.217-7.852-6.838-11.53-15.395c-6.367-1.789-12.635-3.914-18.776-6.365c5.942,21.41,14.874,37.287,24.421,40.318
		c14.306,4.82,44.514-14.822,69.389-43.467c31.524-37.486,39.386-93.361,27.419-106.402c-7.714-8.41-29.786-9.665-55.595-4.437
		c6.349,4.083,12.47,8.509,18.336,13.259C134.18,368.293,142.638,369.78,145.64,373.133z"/>
	<path display="inline" fill="#BDFFFF" d="M160.737,421.781l-0.132-0.284c0,0.043,0.037,0.095,0.062,0.142L160.737,421.781z"/>
	<path display="inline" fill="#BDFFFF" d="M162.65,426.123l-0.065-0.141l0.057,0.127L162.65,426.123z"/>
	<path display="inline" fill="#BDFFFF" d="M162.584,425.982c-0.474-1.133-0.985-2.27-1.502-3.414
		c0.299,0.662,0.583,1.316,0.872,1.975C162.157,425.005,162.38,425.507,162.584,425.982z"/>
	<path display="inline" fill="#BDFFFF" d="M162.835,426.574c7.056,16.768,10.011,31.727,7.752,41.141
		c0.047-0.037,0.104-0.07,0.142-0.107c2.302-9.34-0.838-24.35-7.903-41.057v0.023H162.835z"/>
	<path display="inline" fill="#BDFFFF" d="M158.587,417.249c0.701,1.421,1.368,2.841,2.021,4.262
		C159.955,420.09,159.288,418.674,158.587,417.249z"/>
	<path display="inline" fill="#BDFFFF" d="M162.641,426.095l-0.057-0.113c-0.204-0.475-0.427-0.947-0.63-1.422
		C162.181,425.035,162.428,425.58,162.641,426.095z"/>
	<path display="inline" fill="#BDFFFF" d="M162.641,426.095l-0.057-0.113c-0.204-0.475-0.427-0.947-0.63-1.422
		C162.181,425.035,162.428,425.58,162.641,426.095z"/>
	<path display="inline" fill="#BDFFFF" d="M151.849,462.761c0.223-0.242,0.425-0.502,0.605-0.775
		C152.273,462.259,152.07,462.519,151.849,462.761z"/>
	<path display="inline" fill="#BDFFFF" d="M151.849,462.761c0.223-0.242,0.425-0.502,0.605-0.775
		C152.273,462.259,152.07,462.519,151.849,462.761z"/>
	<path display="inline" fill="#BDFFFF" d="M162.835,426.574c4.892,28.938-6.811,34.631-12.914,37.842l0.062-0.053
		c-5.261,3.607-16.574,5.895-30.813,5.961c-14.418-1.09-28.684-3.666-42.572-7.686c0.116,2.16,0.396,4.309,0.838,6.426
		c0.175,0.83,0.379,1.648,0.597,2.459c39.035,10.574,81.365,5.568,92.556-3.789C172.846,458.316,169.891,443.341,162.835,426.574z"
		/>
	<path display="inline" fill="#BDFFFF" d="M151.128,463.472c0.147-0.133,0.289-0.266,0.422-0.393
		C151.417,463.207,151.276,463.339,151.128,463.472z"/>
	<path display="inline" fill="#BDFFFF" d="M151.128,463.472c0.147-0.133,0.289-0.266,0.422-0.393
		C151.417,463.207,151.276,463.339,151.128,463.472z"/>
	<path display="inline" fill="#BDFFFF" d="M160.605,421.501c-0.654-1.42-1.321-2.841-2.022-4.262
		c0.723,1.471,1.418,2.934,2.084,4.39C160.642,421.591,160.628,421.544,160.605,421.501z"/>
	<path display="inline" fill="#BDFFFF" d="M160.605,421.501c-0.654-1.42-1.321-2.841-2.022-4.262
		c0.723,1.471,1.418,2.934,2.084,4.39C160.642,421.591,160.628,421.544,160.605,421.501z"/>
	<path display="inline" fill="#BDFFFF" d="M162.83,426.544L162.83,426.544c-0.058-0.137-0.123-0.266-0.176-0.402v0.033
		L162.83,426.544z"/>
	<path display="inline" fill="#BDFFFF" d="M161.082,422.552l-0.346-0.771c0.066,0.137,0.119,0.27,0.181,0.408L161.082,422.552z"/>
	<path display="inline" fill="#BDFFFF" d="M149.988,464.339c0.399-0.271,0.78-0.57,1.141-0.891
		C150.767,463.769,150.386,464.066,149.988,464.339z"/>
	<path display="inline" fill="#BDFFFF" d="M151.535,463.08c0.109-0.109,0.209-0.213,0.299-0.318
		C151.754,462.867,151.655,462.974,151.535,463.08z"/>
	<path display="inline" fill="#BDFFFF" d="M160.917,422.193c-0.062-0.133-0.114-0.27-0.181-0.407l-0.066-0.142
		C160.756,421.824,160.831,422.003,160.917,422.193z"/>
	<path display="inline" fill="#BDFFFF" d="M160.917,422.193c-0.062-0.133-0.114-0.27-0.181-0.407l-0.066-0.142
		C160.756,421.824,160.831,422.003,160.917,422.193z"/>
	<path display="inline" fill="#BDFFFF" d="M162.659,426.156v-0.033v-0.023V426.156z"/>
	<path display="inline" fill="#BDFFFF" d="M162.659,426.156v-0.033v-0.023V426.156z"/>
	<path display="inline" fill="#BDFFFF" d="M161.954,424.533c-0.289-0.658-0.573-1.313-0.872-1.975l-0.165-0.365
		C161.272,422.974,161.609,423.751,161.954,424.533z"/>
	<path display="inline" fill="#BDFFFF" d="M161.954,424.533c-0.289-0.658-0.573-1.313-0.872-1.975l-0.165-0.365
		C161.272,422.974,161.609,423.751,161.954,424.533z"/>
	<path display="inline" fill="#BDFFFF" d="M162.835,426.574v-0.029l-0.171-0.393C162.721,426.294,162.774,426.431,162.835,426.574z"
		/>
	<path display="inline" fill="#BDFFFF" d="M162.835,426.574v-0.029l-0.171-0.393C162.721,426.294,162.774,426.431,162.835,426.574z"
		/>
	<path display="inline" fill="#BDFFFF" d="M162.835,426.574c-0.062-0.143-0.114-0.279-0.176-0.418v-0.057
		c-0.223-0.516-0.474-1.041-0.687-1.566c-0.341-0.781-0.682-1.559-1.037-2.344c-0.085-0.186-0.161-0.365-0.246-0.551
		c-0.669-1.452-1.364-2.915-2.084-4.389c-2.264,7.227-4.913,14.329-7.937,21.272c3.575,10.891,4.343,19.529,1.895,23.322
		l-0.095,0.143c-0.181,0.273-0.384,0.533-0.606,0.775c-0.095,0.105-0.194,0.213-0.298,0.318c-0.104,0.104-0.275,0.26-0.422,0.393
		c-0.36,0.322-0.742,0.619-1.142,0.891l-0.062,0.053C156.025,461.199,167.727,455.511,162.835,426.574z"/>
	<path display="inline" fill="#BDFFFF" d="M162.835,426.574c-0.062-0.143-0.114-0.279-0.176-0.418v-0.057
		c-0.223-0.516-0.474-1.041-0.687-1.566c-0.341-0.781-0.682-1.559-1.037-2.344c-0.085-0.186-0.161-0.365-0.246-0.551
		c-0.669-1.452-1.364-2.915-2.084-4.389c-2.264,7.227-4.913,14.329-7.937,21.272c3.575,10.891,4.343,19.529,1.895,23.322
		l-0.095,0.143c-0.181,0.273-0.384,0.533-0.606,0.775c-0.095,0.105-0.194,0.213-0.298,0.318c-0.104,0.104-0.275,0.26-0.422,0.393
		c-0.36,0.322-0.742,0.619-1.142,0.891l-0.062,0.053C156.025,461.199,167.727,455.511,162.835,426.574z"/>
	<path display="inline" fill="#BDFFFF" d="M160.931,422.222v-0.033c-0.085-0.186-0.161-0.365-0.246-0.551l-0.043-0.09
		c-0.653-1.42-1.33-2.841-2.041-4.299c-2.263,7.227-4.912,14.329-7.937,21.272c3.575,10.891,4.343,19.529,1.895,23.322l-0.095,0.143
		c-0.181,0.273-0.384,0.533-0.606,0.775c-0.09,0.105-0.185,0.199-0.289,0.305c-0.104,0.104-0.241,0.227-0.364,0.346l-0.066,0.061
		c-0.356,0.314-0.731,0.607-1.122,0.877h-0.028c-0.279,0.189-0.587,0.379-0.904,0.568l-0.242,0.137
		c-0.308,0.176-0.63,0.34-0.947,0.506l-0.331,0.162c-0.336,0.16-0.682,0.316-1.047,0.473l-0.369,0.146
		c-0.379,0.152-0.763,0.303-1.165,0.475h-0.042c-0.786,0.283-1.639,0.545-2.524,0.795c-0.274,0.076-0.545,0.162-0.829,0.232
		l-0.946,0.232l-1.137,0.27l-0.862,0.18c-0.474,0.096-0.947,0.189-1.42,0.279l-0.739,0.133c-0.609,0.104-1.231,0.201-1.866,0.293
		l-0.416,0.066c-3.688,0.514-7.398,0.83-11.119,0.947l0,0c-1.011,0.035-2.041,0.057-3.093,0.066c1.977-2.346,3.93-4.758,5.858-7.236
		c18.056-24.982,29.132-54.324,32.093-85.006c2.51,0.749,4.958,1.563,7.278,2.491c0.137-9.168-1.492-16.38-5.152-20.41
		c-5.503-6.265-18.857-8.524-35.711-7.26l-0.502,0.043c-0.976,0.076-1.96,0.166-2.964,0.265l-0.843,0.085
		c-0.98,0.104-1.966,0.218-2.965,0.346l-0.677,0.081c-1.188,0.158-2.387,0.329-3.6,0.512l-1.046,0.175
		c-0.862,0.139-1.729,0.284-2.601,0.436l-1.515,0.274l-2.202,0.421l-0.994,0.189l0,0c-9.57,1.957-18.992,4.582-28.195,7.856
		c-1.028,0.289-2.061,0.587-3.111,0.947c-29.834,9.755-56.381,25.789-67.547,40.1l-0.086,0.109
		c-1.989,2.455-3.563,5.219-4.659,8.183l-0.028,0.085c-0.206,0.608-0.377,1.229-0.512,1.856v0.095
		c-0.159,0.703-0.262,1.417-0.308,2.136c-0.502,8.387,7.43,19.576,20.362,30.742c-0.272-1.744-0.412-3.506-0.417-5.27
		c12.798,9.361,26.651,17.188,41.275,23.316c5.477,2.236,11.09,4.125,16.806,5.65v0.023c0.739,0.199,1.482,0.383,2.221,0.572
		c0.271,0.066,0.545,0.139,0.814,0.209c-1.013-0.252-2.026-0.512-3.035-0.781c0.967,3.512,2.378,6.885,4.2,10.039
		c2.993,0.787,5.986,1.463,8.998,2.055c-9.552,6.318-17.631,9.301-21.897,7.904l-0.189-0.076c-3.722-1.217-7.852-6.838-11.53-15.395
		c-5.646-1.592-11.034-3.396-16.101-5.342l-2.591-0.801c5.887,21.092,14.68,36.752,24.085,39.986
		c8.997,2.682,25.571-7.354,42.724-24.15c30.245,2.979,57.044-3.414,62.981-13.26c0.863-1.496,1.492-3.115,1.866-4.801
		c-0.379,0.316-0.8,0.625-1.245,0.947c0.445-0.305,0.866-0.617,1.245-0.947l0,0l0.143-0.109
		C173.229,457.468,169.323,440.662,160.931,422.222z M165.269,470.869c0.54-0.246,1.061-0.473,1.554-0.748
		c-1.319,0.67-2.677,1.262-4.063,1.775c0.535-0.197,1.051-0.406,1.549-0.619C164.654,471.138,164.975,471.007,165.269,470.869z
		 M159.264,473.076l0.786-0.25c0.597-0.188,1.176-0.379,1.738-0.578c-1.598,0.564-3.334,1.09-5.209,1.576
		c0.947-0.24,1.849-0.488,2.704-0.748H159.264z M155.807,474.023l0.465-0.119c-0.971,0.252-1.989,0.475-3.026,0.715l0.218-0.047
		c0.801-0.18,1.596-0.363,2.363-0.553L155.807,474.023z M152.62,474.757c-2.297,0.473-4.735,0.904-7.316,1.264l0.474-0.061
		c2.415-0.355,4.707-0.758,6.861-1.203H152.62z M141.563,476.5c1.231-0.139,2.436-0.297,3.613-0.473
		c-1.203,0.17-2.433,0.328-3.688,0.473H141.563z M141.43,476.5c-2.694,0.299-5.512,0.531-8.419,0.688
		c2.931-0.148,5.739-0.379,8.443-0.674L141.43,476.5z M41.161,444.451c-6.884-4.848-13.006-10.695-18.166-17.348
		c-0.265-0.373-0.521-0.742-0.738-1.121c-0.066-0.096-0.123-0.189-0.185-0.289c-0.613-0.943-1.157-1.93-1.629-2.951
		c-0.095-0.207-0.189-0.412-0.271-0.609c-0.08-0.199-0.156-0.403-0.228-0.607c-0.07-0.203-0.151-0.445-0.218-0.663
		s-0.1-0.351-0.142-0.521c-0.062-0.246-0.104-0.474-0.143-0.72c0-0.137-0.047-0.275-0.062-0.407
		c-0.04-0.349-0.053-0.701-0.037-1.051v-0.156c0.019-0.309,0.06-0.616,0.123-0.919c0-0.099,0.042-0.199,0.065-0.298
		c0.053-0.232,0.124-0.474,0.199-0.701c0.033-0.109,0.066-0.213,0.109-0.322c0.118-0.322,0.251-0.653,0.407-0.985
		c0.042-0.09,0.095-0.185,0.142-0.279c0.128-0.251,0.261-0.511,0.412-0.772c0.09-0.156,0.185-0.313,0.279-0.474
		c0.095-0.161,0.261-0.417,0.402-0.625c0.143-0.208,0.223-0.341,0.346-0.516s0.355-0.474,0.54-0.729
		c0.185-0.256,0.474-0.616,0.734-0.947l0.384-0.474c0.208-0.242,0.426-0.474,0.648-0.739l0.331-0.36
		c0.834-0.881,1.771-1.828,2.799-2.775l0.114-0.104c0.369-0.341,0.748-0.682,1.141-1.028l0,0c0.809-0.71,1.665-1.427,2.571-2.15l0,0
		c2.786-2.212,5.685-4.278,8.686-6.189c24.554-11.964,50.396-21.08,77.022-27.167c2.074-0.237,4.067-0.398,5.99-0.507l0,0
		c3.806-0.252,7.625-0.202,11.422,0.152h0.043c0.54,0.052,1.061,0.118,1.572,0.189h0.047c1.408,0.19,2.803,0.475,4.172,0.852h0.048
		c0.284,0.085,0.554,0.175,0.824,0.265c0.17,0.052,0.341,0.109,0.502,0.166l0.644,0.27c0.189,0.076,0.374,0.156,0.555,0.237
		c0.18,0.08,0.354,0.166,0.525,0.255c0.17,0.09,0.369,0.194,0.544,0.294c0.176,0.099,0.284,0.166,0.422,0.251
		c0.138,0.085,0.364,0.251,0.535,0.378c0.1,0.076,0.203,0.147,0.298,0.223c0.246,0.203,0.478,0.423,0.691,0.658l0.124,0.128
		c0.274,0.309,0.519,0.644,0.729,1l0,0c0.231,0.391,0.436,0.797,0.611,1.217c2.453,5.806,1.818,17.81-1.97,32.329
		c-14.307,37.884-22.707,47.354-36.852,61.245C70.777,464.25,62.859,457.236,41.161,444.451z M101.179,476.035
		c-4.883-0.609-9.817-1.42-14.742-2.49c1.427,0.316,2.855,0.602,4.286,0.857l0.672,0.127c3.265,0.598,6.518,1.098,9.76,1.502l0,0
		L101.179,476.035z M81.289,472.361c1.538,0.383,3.078,0.74,4.622,1.074l0.36,0.072c-1.68-0.357-3.349-0.74-5.006-1.15
		L81.289,472.361z M114.002,477.181L114.002,477.181c3.268,0.178,6.472,0.266,9.613,0.266h0.128c3.084,0,6.083-0.078,8.997-0.236
		c-6.25,0.324-12.513,0.314-18.762-0.029H114.002z M167.262,469.908l0.417-0.227c0.337-0.189,0.653-0.375,0.947-0.568l0.189-0.123
		c-0.496,0.313-1.021,0.617-1.577,0.914L167.262,469.908z"/>
	<path display="inline" fill="#BDFFFF" d="M158.587,417.249c-2.264,7.227-4.913,14.329-7.937,21.272
		c3.575,10.891,4.342,19.529,1.894,23.322l-0.095,0.143c-3.191,4.963-16.101,8.268-33.285,8.338
		c-36.402-3.754-49.003-8.826-63.759-17.389c-3.447-2.002-7.032-4.189-11.053-6.596l-3.191-1.889
		c-5.813-4.189-11.135-9.016-15.869-14.393l0,0c-3.285-3.16-5.39-7.35-5.962-11.872v-0.18c0.203-3.94,4.522-9.41,11.768-15.206
		c0.071-6.654,0.488-13.301,1.25-19.913C13.368,394.201,0.474,407.011,0,417.083c-0.748,12.439,17.048,31.027,42.146,46.578
		l0.066,0.043c1.282,0.793,2.582,1.582,3.902,2.367l0.407,0.242c1.357,0.795,2.73,1.584,4.12,2.367l0.17,0.09
		c1.263,0.701,2.537,1.389,3.821,2.064l0.9,0.475c1.358,0.709,2.723,1.42,4.105,2.098l0.535,0.24l0,0
		c44.007,20.629,99.886,12.602,108.552-1.131C174.99,462.957,170.275,441.017,158.587,417.249z"/>
	<path display="inline" fill="#BDFFFF" d="M69.319,491.521l-0.181-0.053c-5.588-1.828-12.085-13.539-16.607-30.246
		c-7.529-47.104-2.642-55.992,4.622-82.634c6.194-15.978,13.809-26.827,19.515-28.058l0.171-0.028
		c3.826-0.824,10.19,1.965,17.616,7.515c6.398-1.652,12.879-2.969,19.415-3.945c-15.75-15.551-31.363-24.805-41.132-22.622
		c-14.78,3.041-31.184,35.27-38.528,72.619c-8.685,48.339,12.602,100.994,29.062,105.957c10.892,3.277,30.592-6.629,50.353-24.15
		c-7.517-0.332-15.01-1.072-22.446-2.221C81.645,489.943,73.58,492.917,69.319,491.521z"/>
	<path display="inline" fill="#BDFFFF" d="M73.022,331.409c-12.743,3.092-25.941,34.977-31.184,72.254
		c-5.849,46.379,13.027,97.612,26.661,107.055c11.294-0.213,28.214-9.855,45.119-24.857c-7.517-0.33-15.01-1.072-22.446-2.221
		c-9.527,6.309-17.592,9.281-21.854,7.885l-0.181-0.057c-5.588-1.828-12.085-13.539-16.607-30.246
		c-7.529-47.104-2.642-55.992,4.622-82.634c6.194-15.978,13.809-26.827,19.515-28.058l0.171-0.028
		c3.826-0.824,10.19,1.965,17.616,7.515c5.683-1.454,11.242-2.614,16.612-3.49l2.638-0.611
		C98.157,338.606,82.777,329.462,73.022,331.409z"/>
	<path display="inline" fill="#BDFFFF" d="M105.829,492.386c2.58-2.045,5.209-4.219,7.794-6.529
		c-7.517-0.332-15.01-1.072-22.446-2.221c-9.527,6.307-17.592,9.281-21.854,7.885l-0.185-0.053
		c-1.105-0.408-2.119-1.031-2.983-1.832C70.828,494.746,79.32,504.675,105.829,492.386z"/>
	<path display="inline" fill="#BDFFFF" d="M113.723,353.917l-0.071-0.076c-8.028-6.461-18.629-8.768-28.616-6.227
		c-3.126,0.669-6.157,1.72-9.026,3.13c0.228-0.076,0.474-0.161,0.678-0.213l0.17-0.028c3.827-0.824,10.191,1.965,17.616,7.515
		c5.683-1.454,11.242-2.614,16.612-3.49L113.723,353.917z"/>
	<path display="inline" fill="#BDFFFF" d="M295.495,483.433h-68.982V358.86h20.68v107.112h48.303V483.433z"/>
	<path display="inline" fill="#BDFFFF" d="M386.53,444.451h-60.614c-0.22,7.121,2.533,14.012,7.601,19.021
		c5.538,4.711,12.678,7.107,19.937,6.691c9.403,0.029,18.569-2.959,26.149-8.523v16.242c-9.783,5.52-20.924,8.168-32.145,7.643
		c-11.533,0.621-22.767-3.801-30.78-12.117c-7.441-8.08-11.162-19.445-11.162-34.096c-0.506-12.459,3.917-24.616,12.313-33.835
		c7.818-8.555,18.947-13.32,30.534-13.075c10.711-0.618,21.114,3.705,28.233,11.73c7.146,9.301,10.693,20.868,9.991,32.575v7.744
		H386.53z M367.072,430.201c0.318-6.059-1.495-12.036-5.124-16.896c-3.436-4.069-8.569-6.307-13.889-6.057
		c-5.588-0.087-10.946,2.221-14.723,6.341c-4.188,4.586-6.791,10.397-7.426,16.575h41.199L367.072,430.201z"/>
	<path display="inline" fill="#BDFFFF" d="M484.952,483.433h-20.154v-50.127c0-16.621-5.878-24.932-17.635-24.932
		c-5.854-0.129-11.447,2.412-15.201,6.905c-4.089,4.861-6.226,11.068-5.995,17.417v50.736h-20.239v-88.957h20.239v14.77h0.346
		c5.639-10.633,16.808-17.16,28.839-16.854c8.462-0.527,16.675,2.971,22.157,9.438c5.596,7.933,8.294,17.548,7.644,27.234V483.433z"
		/>
	<path display="inline" fill="#BDFFFF" d="M548.977,485.515c-12.214,0.584-24.122-3.93-32.879-12.463
		c-8.428-8.885-12.874-20.82-12.313-33.055c-0.752-12.939,3.887-25.612,12.814-35.009c9.33-8.7,21.79-13.246,34.531-12.596
		c12.077-0.706,23.886,3.747,32.49,12.25c8.192,9.354,12.373,21.556,11.64,33.968c0.599,12.596-3.931,24.896-12.554,34.096
		C573.737,481.484,561.513,486.126,548.977,485.515z M549.923,408.46c-7.172-0.313-14.08,2.739-18.677,8.254
		c-4.905,6.538-7.336,14.6-6.861,22.758c-0.457,7.943,2.011,15.779,6.938,22.025c4.648,5.373,11.492,8.336,18.592,8.051
		c7.004,0.41,13.788-2.521,18.288-7.904c4.646-6.545,6.899-14.488,6.384-22.498c0.513-8.064-1.738-16.063-6.384-22.673
		c-4.464-5.432-11.25-8.408-18.27-8.013H549.923z"/>
</g>
<text transform="matrix(1 0 0 1 -1.0232 475.8979)" display="none"><tspan x="0" y="0" display="inline" font-family="'AgencyFB-Bold'" font-size="143.4356">C</tspan><tspan x="66.815" y="0" display="inline" font-family="'AgencyFB-Bold'" font-size="143.4356">r</tspan><tspan x="120.463" y="0" display="inline" font-family="'AgencyFB-Bold'" font-size="143.4356">y</tspan><tspan x="176.283" y="0" display="inline" font-family="'AgencyFB-Bold'" font-size="143.4356">p</tspan><tspan x="234.834" y="0" display="inline" font-family="'AgencyFB-Bold'" font-size="143.4356">t</tspan><tspan x="274.265" y="0" display="inline" font-family="'AgencyFB-Bold'" font-size="143.4356">o</tspan><tspan x="332.465" y="0" display="inline" font-family="'AgencyFB-Bold'" font-size="143.4356">C</tspan><tspan x="399.28" y="0" display="inline" font-family="'AgencyFB-Bold'" font-size="143.4356">o</tspan><tspan x="457.481" y="0" display="inline" font-family="'AgencyFB-Bold'" font-size="143.4356">i</tspan><tspan x="485.566" y="0" display="inline" font-family="'AgencyFB-Bold'" font-size="143.4356">n</tspan><tspan x="544.257" y="0" display="inline" font-family="'AgencyFB-Bold'" font-size="143.4356">s</tspan></text>
<g>
	<path fill="#FFFFFF" d="M72.995,461.174c0,8.475-4.236,12.71-12.709,12.71H16.914c-8.236,0-12.354-4.235-12.354-12.71V347.59
		c0-8.532,4.117-12.798,12.354-12.798h43.373c8.473,0,12.709,4.266,12.709,12.798v32.529H52.287v-27.463h-26.93v103.365h26.93
		V426.78h20.708V461.174z"/>
	<path fill="#FFFFFF" d="M144.898,421.625h-20.175v-20.532l-16.087,0.355v72.435H88.283v-89.766h20.353v3.29
		c4.207-0.77,8.383-1.541,12.532-2.312c5.036-0.888,9.243-1.333,12.621-1.333c7.406,0,11.109,3.645,11.109,10.931V421.625z"/>
	<path fill="#FFFFFF" d="M217.155,384.118l-22.486,88.611l-8.621,33.951H165.25l9.332-33.508l-22.751-89.054h20.886l11.82,59.016
		l11.821-59.016H217.155z"/>
	<path fill="#FFFFFF" d="M287.1,455.841c0,7.289-2.608,12.386-7.821,15.288c-3.793,2.074-9.541,3.111-17.243,3.111
		c-1.777,0-4.281-0.06-7.51-0.18c-3.23-0.118-5.554-0.177-6.977-0.177v32.796h-20.353V384.118h20.353v3.29
		c4.74-0.712,9.48-1.451,14.221-2.222c5.983-0.948,10.724-1.422,14.22-1.422c7.406,0,11.109,3.645,11.109,10.931V455.841z
		 M266.658,450.244v-49.15l-19.108,0.355v55.548h12.621C264.495,456.998,266.658,454.747,266.658,450.244z"/>
	<path fill="#FFFFFF" d="M340.25,473.884h-22.575c-7.525,0-11.287-3.702-11.287-11.11v-61.325h-9.599v-17.331h9.599v-24.352h20.264
		v24.352h13.064v17.331h-13.064v55.104h13.599V473.884z"/>
	<path fill="#FFFFFF" d="M410.73,462.774c0,7.408-3.765,11.11-11.287,11.11h-36.44c-7.644,0-11.465-3.702-11.465-11.11v-67.545
		c0-7.406,3.821-11.11,11.465-11.11h36.44c7.522,0,11.287,3.704,11.287,11.11V462.774z M390.821,456.998v-55.904h-19.286v55.904
		H390.821z"/>
	<path fill="#FFFFFF" d="M494.895,461.174c0,8.475-4.237,12.71-12.709,12.71h-43.372c-8.236,0-12.354-4.235-12.354-12.71V347.59
		c0-8.532,4.118-12.798,12.354-12.798h43.372c8.472,0,12.709,4.266,12.709,12.798v32.529h-20.708v-27.463h-26.931v103.365h26.931
		V426.78h20.708V461.174z"/>
	<path fill="#FFFFFF" d="M569.374,462.774c0,7.408-3.763,11.11-11.287,11.11h-36.44c-7.643,0-11.464-3.702-11.464-11.11v-67.545
		c0-7.406,3.821-11.11,11.464-11.11h36.44c7.524,0,11.287,3.704,11.287,11.11V462.774z M549.466,456.998v-55.904h-19.287v55.904
		H549.466z"/>
	<path fill="#FFFFFF" d="M604.748,371.231h-20.353v-20.975h20.353V371.231z M604.572,473.884h-19.999v-89.766h19.999V473.884z"/>
	<path fill="#FFFFFF" d="M679.582,473.884H659.14v-72.791l-19.108,0.355v72.435h-20.354v-89.766h20.354v3.29
		c4.74-0.77,9.45-1.512,14.131-2.222c5.808-0.948,10.577-1.422,14.31-1.422c7.406,0,11.11,3.645,11.11,10.931V473.884z"/>
	<path fill="#FFFFFF" d="M750.596,462.774c0,7.408-3.765,11.11-11.287,11.11H705.09c-7.524,0-11.287-3.702-11.287-11.11v-19.285
		h19.464v15.11h17.863v-14.222l-31.193-18.397c-4.091-2.43-6.134-5.689-6.134-9.777v-20.974c0-7.406,3.822-11.11,11.465-11.11
		h33.862c7.523,0,11.287,3.704,11.287,11.11v18.042H731.13v-13.865h-17.863v12.977l31.106,18.22
		c4.146,2.371,6.223,5.688,6.223,9.955V462.774z"/>
</g>
</svg>
